<?xml version="1.0" encoding="UTF-8" standalone="no"?><svg xmlns="http://www.w3.org/2000/svg" xmlns:xlink="http://www.w3.org/1999/xlink" contentScriptType="application/ecmascript" contentStyleType="text/css" height="588px" preserveAspectRatio="none" style="width:271px;height:588px;background:#FFFFFF;" version="1.1" viewBox="0 0 271 588" width="271px" zoomAndPan="magnify"><defs><filter height="300%" id="fmq0j7gonv1ta" width="300%" x="-1" y="-1"><feGaussianBlur result="blurOut" stdDeviation="2.0"/><feColorMatrix in="blurOut" result="blurOut2" type="matrix" values="0 0 0 0 0 0 0 0 0 0 0 0 0 0 0 0 0 0 .4 0"/><feOffset dx="4.0" dy="4.0" in="blurOut2" result="blurOut3"/><feBlend in="SourceGraphic" in2="blurOut3" mode="normal"/></filter></defs><g><text fill="#000000" font-family="sans-serif" font-size="18" lengthAdjust="spacing" textLength="77" x="96" y="26.708">Trie Find</text><ellipse cx="122" cy="40.9531" fill="#000000" filter="url(#fmq0j7gonv1ta)" rx="10" ry="10" style="stroke:none;stroke-width:1.0;"/><rect fill="#FEFECE" filter="url(#fmq0j7gonv1ta)" height="33.9688" rx="12.5" ry="12.5" style="stroke:#A80036;stroke-width:1.5;" width="107" x="68.5" y="70.9531"/><text fill="#000000" font-family="sans-serif" font-size="12" lengthAdjust="spacing" textLength="87" x="78.5" y="92.0918">current = root</text><rect fill="#FEFECE" filter="url(#fmq0j7gonv1ta)" height="33.9688" rx="12.5" ry="12.5" style="stroke:#A80036;stroke-width:1.5;" width="120" x="62" y="124.9219"/><text fill="#000000" font-family="sans-serif" font-size="12" lengthAdjust="spacing" textLength="100" x="72" y="146.0605">for each c in key</text><rect fill="#FEFECE" filter="url(#fmq0j7gonv1ta)" height="33.9688" rx="12.5" ry="12.5" style="stroke:#A80036;stroke-width:1.5;" width="222" x="11" y="222.8906"/><text fill="#000000" font-family="sans-serif" font-size="12" lengthAdjust="spacing" textLength="202" x="21" y="244.0293">current = current.children.get(c)</text><rect fill="#FEFECE" filter="url(#fmq0j7gonv1ta)" height="33.9688" rx="12.5" ry="12.5" style="stroke:#A80036;stroke-width:1.5;" width="123" x="60.5" y="325.2617"/><text fill="#000000" font-family="sans-serif" font-size="12" lengthAdjust="spacing" textLength="103" x="70.5" y="346.4004">return empty set</text><ellipse cx="122" cy="398.7461" fill="#FFFFFF" filter="url(#fmq0j7gonv1ta)" rx="11" ry="11" style="stroke:#000000;stroke-width:1.0;"/><ellipse cx="122" cy="398.7461" fill="#000000" rx="6" ry="6" style="stroke:#7F7F7F;stroke-width:1.0;"/><polygon fill="#FEFECE" filter="url(#fmq0j7gonv1ta)" points="83,276.8594,161,276.8594,173,288.8594,161,300.8594,83,300.8594,71,288.8594,83,276.8594" style="stroke:#A80036;stroke-width:1.5;"/><text fill="#000000" font-family="sans-serif" font-size="11" lengthAdjust="spacing" textLength="20" x="126" y="311.0698">yes</text><text fill="#000000" font-family="sans-serif" font-size="11" lengthAdjust="spacing" textLength="78" x="83" y="292.6675">current = null</text><polygon fill="#FEFECE" filter="url(#fmq0j7gonv1ta)" points="122,178.8906,134,190.8906,122,202.8906,110,190.8906,122,178.8906" style="stroke:#A80036;stroke-width:1.5;"/><polygon fill="#FEFECE" filter="url(#fmq0j7gonv1ta)" points="122,451.7461,122,451.7461,134,463.7461,122,475.7461,122,475.7461,110,463.7461,122,451.7461" style="stroke:#A80036;stroke-width:1.5;"/><rect fill="#FEFECE" filter="url(#fmq0j7gonv1ta)" height="33.9688" rx="12.5" ry="12.5" style="stroke:#A80036;stroke-width:1.5;" width="153" x="45.5" y="495.7461"/><text fill="#000000" font-family="sans-serif" font-size="12" lengthAdjust="spacing" textLength="133" x="55.5" y="516.8848">return current.bucket</text><ellipse cx="122" cy="560.7148" fill="#FFFFFF" filter="url(#fmq0j7gonv1ta)" rx="11" ry="11" style="stroke:#000000;stroke-width:1.0;"/><ellipse cx="122" cy="560.7148" fill="#000000" rx="6" ry="6" style="stroke:#7F7F7F;stroke-width:1.0;"/><line style="stroke:#A80036;stroke-width:1.5;" x1="122" x2="122" y1="50.9531" y2="70.9531"/><polygon fill="#A80036" points="118,60.9531,122,70.9531,126,60.9531,122,64.9531" style="stroke:#A80036;stroke-width:1.0;"/><line style="stroke:#A80036;stroke-width:1.5;" x1="122" x2="122" y1="104.9219" y2="124.9219"/><polygon fill="#A80036" points="118,114.9219,122,124.9219,126,114.9219,122,118.9219" style="stroke:#A80036;stroke-width:1.0;"/><line style="stroke:#A80036;stroke-width:1.5;" x1="122" x2="122" y1="359.2305" y2="387.7461"/><polygon fill="#A80036" points="118,377.7461,122,387.7461,126,377.7461,122,381.7461" style="stroke:#A80036;stroke-width:1.0;"/><line style="stroke:#A80036;stroke-width:1.5;" x1="122" x2="122" y1="300.8594" y2="325.2617"/><polygon fill="#A80036" points="118,315.2617,122,325.2617,126,315.2617,122,319.2617" style="stroke:#A80036;stroke-width:1.0;"/><line style="stroke:#A80036;stroke-width:1.5;" x1="173" x2="193.5" y1="288.8594" y2="288.8594"/><polygon fill="#A80036" points="189.5,357.7461,193.5,367.7461,197.5,357.7461,193.5,361.7461" style="stroke:#A80036;stroke-width:1.5;"/><line style="stroke:#A80036;stroke-width:1.5;" x1="193.5" x2="193.5" y1="288.8594" y2="431.7461"/><line style="stroke:#A80036;stroke-width:1.5;" x1="193.5" x2="122" y1="431.7461" y2="431.7461"/><line style="stroke:#A80036;stroke-width:1.5;" x1="122" x2="122" y1="431.7461" y2="451.7461"/><polygon fill="#A80036" points="118,441.7461,122,451.7461,126,441.7461,122,445.7461" style="stroke:#A80036;stroke-width:1.0;"/><line style="stroke:#A80036;stroke-width:1.5;" x1="122" x2="122" y1="256.8594" y2="276.8594"/><polygon fill="#A80036" points="118,266.8594,122,276.8594,126,266.8594,122,270.8594" style="stroke:#A80036;stroke-width:1.0;"/><line style="stroke:#A80036;stroke-width:1.5;" x1="122" x2="122" y1="202.8906" y2="222.8906"/><polygon fill="#A80036" points="118,212.8906,122,222.8906,126,212.8906,122,216.8906" style="stroke:#A80036;stroke-width:1.0;"/><line style="stroke:#A80036;stroke-width:1.5;" x1="134" x2="245" y1="463.7461" y2="463.7461"/><polygon fill="#A80036" points="241,337.2617,245,327.2617,249,337.2617,245,333.2617" style="stroke:#A80036;stroke-width:1.5;"/><line style="stroke:#A80036;stroke-width:1.5;" x1="245" x2="245" y1="190.8906" y2="463.7461"/><line style="stroke:#A80036;stroke-width:1.5;" x1="245" x2="134" y1="190.8906" y2="190.8906"/><polygon fill="#A80036" points="144,186.8906,134,190.8906,144,194.8906,140,190.8906" style="stroke:#A80036;stroke-width:1.0;"/><line style="stroke:#A80036;stroke-width:1.5;" x1="122" x2="122" y1="158.8906" y2="178.8906"/><polygon fill="#A80036" points="118,168.8906,122,178.8906,126,168.8906,122,172.8906" style="stroke:#A80036;stroke-width:1.0;"/><line style="stroke:#A80036;stroke-width:1.5;" x1="122" x2="122" y1="475.7461" y2="495.7461"/><polygon fill="#A80036" points="118,485.7461,122,495.7461,126,485.7461,122,489.7461" style="stroke:#A80036;stroke-width:1.0;"/><line style="stroke:#A80036;stroke-width:1.5;" x1="122" x2="122" y1="529.7148" y2="549.7148"/><polygon fill="#A80036" points="118,539.7148,122,549.7148,126,539.7148,122,543.7148" style="stroke:#A80036;stroke-width:1.0;"/><!--MD5=[e5c1998b53c92e811f72f99c7c8fe638]
@startuml

title Trie Find

start
:current = root;

:for each c in key;
repeat
    :current = current.children.get(c);
    if (current = null) then (yes)
        :return empty set;
        stop
    endif
repeatwhile
:return current.bucket;
stop
@enduml

PlantUML version 1.2021.7(Sun May 23 06:40:07 CST 2021)
(GPL source distribution)
Java Runtime: OpenJDK Runtime Environment
JVM: OpenJDK 64-Bit Server VM
Default Encoding: UTF-8
Language: en
Country: US
--></g></svg>