<?xml version="1.0" encoding="UTF-8" standalone="no"?><svg xmlns="http://www.w3.org/2000/svg" xmlns:xlink="http://www.w3.org/1999/xlink" contentScriptType="application/ecmascript" contentStyleType="text/css" height="675px" preserveAspectRatio="none" style="width:275px;height:675px;background:#FFFFFF;" version="1.1" viewBox="0 0 275 675" width="275px" zoomAndPan="magnify"><defs><filter height="300%" id="fgymqxby95j5o" width="300%" x="-1" y="-1"><feGaussianBlur result="blurOut" stdDeviation="2.0"/><feColorMatrix in="blurOut" result="blurOut2" type="matrix" values="0 0 0 0 0 0 0 0 0 0 0 0 0 0 0 0 0 0 .4 0"/><feOffset dx="4.0" dy="4.0" in="blurOut2" result="blurOut3"/><feBlend in="SourceGraphic" in2="blurOut3" mode="normal"/></filter></defs><g><text fill="#000000" font-family="sans-serif" font-size="18" lengthAdjust="spacing" textLength="90" x="91.5" y="26.708">Trie Insert</text><ellipse cx="122" cy="40.9531" fill="#000000" filter="url(#fgymqxby95j5o)" rx="10" ry="10" style="stroke:none;stroke-width:1.0;"/><rect fill="#FEFECE" filter="url(#fgymqxby95j5o)" height="33.9688" rx="12.5" ry="12.5" style="stroke:#A80036;stroke-width:1.5;" width="107" x="68.5" y="70.9531"/><text fill="#000000" font-family="sans-serif" font-size="12" lengthAdjust="spacing" textLength="87" x="78.5" y="92.0918">current = root</text><rect fill="#FEFECE" filter="url(#fgymqxby95j5o)" height="33.9688" rx="12.5" ry="12.5" style="stroke:#A80036;stroke-width:1.5;" width="120" x="62" y="124.9219"/><text fill="#000000" font-family="sans-serif" font-size="12" lengthAdjust="spacing" textLength="100" x="72" y="146.0605">for each c in key</text><rect fill="#FEFECE" filter="url(#fgymqxby95j5o)" height="33.9688" rx="12.5" ry="12.5" style="stroke:#A80036;stroke-width:1.5;" width="222" x="11" y="222.8906"/><text fill="#000000" font-family="sans-serif" font-size="12" lengthAdjust="spacing" textLength="202" x="21" y="244.0293">current = current.children.get(c)</text><rect fill="#FEFECE" filter="url(#fgymqxby95j5o)" height="33.9688" rx="12.5" ry="12.5" style="stroke:#A80036;stroke-width:1.5;" width="160" x="42" y="325.2617"/><text fill="#000000" font-family="sans-serif" font-size="12" lengthAdjust="spacing" textLength="140" x="52" y="346.4004">node = new TrieNode()</text><rect fill="#FEFECE" filter="url(#fgymqxby95j5o)" height="33.9688" rx="12.5" ry="12.5" style="stroke:#A80036;stroke-width:1.5;" width="198" x="23" y="386.7305"/><text fill="#000000" font-family="sans-serif" font-size="12" lengthAdjust="spacing" textLength="178" x="33" y="407.8691">current.children.put(c, node)</text><rect fill="#FEFECE" filter="url(#fgymqxby95j5o)" height="33.9688" rx="12.5" ry="12.5" style="stroke:#A80036;stroke-width:1.5;" width="113" x="65.5" y="440.6992"/><text fill="#000000" font-family="sans-serif" font-size="12" lengthAdjust="spacing" textLength="93" x="75.5" y="461.8379">current = node</text><polygon fill="#FEFECE" filter="url(#fgymqxby95j5o)" points="83,276.8594,161,276.8594,173,288.8594,161,300.8594,83,300.8594,71,288.8594,83,276.8594" style="stroke:#A80036;stroke-width:1.5;"/><text fill="#000000" font-family="sans-serif" font-size="11" lengthAdjust="spacing" textLength="20" x="126" y="311.0698">yes</text><text fill="#000000" font-family="sans-serif" font-size="11" lengthAdjust="spacing" textLength="78" x="83" y="292.6675">current = null</text><polygon fill="#FEFECE" filter="url(#fgymqxby95j5o)" points="122,494.668,134,506.668,122,518.668,110,506.668,122,494.668" style="stroke:#A80036;stroke-width:1.5;"/><polygon fill="#FEFECE" filter="url(#fgymqxby95j5o)" points="122,178.8906,134,190.8906,122,202.8906,110,190.8906,122,178.8906" style="stroke:#A80036;stroke-width:1.5;"/><polygon fill="#FEFECE" filter="url(#fgymqxby95j5o)" points="122,538.668,122,538.668,134,550.668,122,562.668,122,562.668,110,550.668,122,538.668" style="stroke:#A80036;stroke-width:1.5;"/><rect fill="#FEFECE" filter="url(#fgymqxby95j5o)" height="33.9688" rx="12.5" ry="12.5" style="stroke:#A80036;stroke-width:1.5;" width="180" x="32" y="582.668"/><text fill="#000000" font-family="sans-serif" font-size="12" lengthAdjust="spacing" textLength="160" x="42" y="603.8066">current.bucket.add(value)</text><ellipse cx="122" cy="647.6367" fill="#FFFFFF" filter="url(#fgymqxby95j5o)" rx="11" ry="11" style="stroke:#000000;stroke-width:1.0;"/><ellipse cx="122" cy="647.6367" fill="#000000" rx="6" ry="6" style="stroke:#7F7F7F;stroke-width:1.0;"/><line style="stroke:#A80036;stroke-width:1.5;" x1="122" x2="122" y1="50.9531" y2="70.9531"/><polygon fill="#A80036" points="118,60.9531,122,70.9531,126,60.9531,122,64.9531" style="stroke:#A80036;stroke-width:1.0;"/><line style="stroke:#A80036;stroke-width:1.5;" x1="122" x2="122" y1="104.9219" y2="124.9219"/><polygon fill="#A80036" points="118,114.9219,122,124.9219,126,114.9219,122,118.9219" style="stroke:#A80036;stroke-width:1.0;"/><line style="stroke:#A80036;stroke-width:1.5;" x1="122" x2="122" y1="359.2305" y2="386.7305"/><polygon fill="#A80036" points="118,376.7305,122,386.7305,126,376.7305,122,380.7305" style="stroke:#A80036;stroke-width:1.0;"/><line style="stroke:#A80036;stroke-width:1.5;" x1="122" x2="122" y1="420.6992" y2="440.6992"/><polygon fill="#A80036" points="118,430.6992,122,440.6992,126,430.6992,122,434.6992" style="stroke:#A80036;stroke-width:1.0;"/><line style="stroke:#A80036;stroke-width:1.5;" x1="122" x2="122" y1="300.8594" y2="325.2617"/><polygon fill="#A80036" points="118,315.2617,122,325.2617,126,315.2617,122,319.2617" style="stroke:#A80036;stroke-width:1.0;"/><line style="stroke:#A80036;stroke-width:1.5;" x1="173" x2="231" y1="288.8594" y2="288.8594"/><polygon fill="#A80036" points="227,393.7148,231,403.7148,235,393.7148,231,397.7148" style="stroke:#A80036;stroke-width:1.5;"/><line style="stroke:#A80036;stroke-width:1.5;" x1="231" x2="231" y1="288.8594" y2="506.668"/><line style="stroke:#A80036;stroke-width:1.5;" x1="231" x2="134" y1="506.668" y2="506.668"/><polygon fill="#A80036" points="144,502.668,134,506.668,144,510.668,140,506.668" style="stroke:#A80036;stroke-width:1.0;"/><line style="stroke:#A80036;stroke-width:1.5;" x1="122" x2="122" y1="474.668" y2="494.668"/><polygon fill="#A80036" points="118,484.668,122,494.668,126,484.668,122,488.668" style="stroke:#A80036;stroke-width:1.0;"/><line style="stroke:#A80036;stroke-width:1.5;" x1="122" x2="122" y1="256.8594" y2="276.8594"/><polygon fill="#A80036" points="118,266.8594,122,276.8594,126,266.8594,122,270.8594" style="stroke:#A80036;stroke-width:1.0;"/><line style="stroke:#A80036;stroke-width:1.5;" x1="122" x2="122" y1="202.8906" y2="222.8906"/><polygon fill="#A80036" points="118,212.8906,122,222.8906,126,212.8906,122,216.8906" style="stroke:#A80036;stroke-width:1.0;"/><line style="stroke:#A80036;stroke-width:1.5;" x1="134" x2="249" y1="550.668" y2="550.668"/><polygon fill="#A80036" points="245,379.2305,249,369.2305,253,379.2305,249,375.2305" style="stroke:#A80036;stroke-width:1.5;"/><line style="stroke:#A80036;stroke-width:1.5;" x1="249" x2="249" y1="190.8906" y2="550.668"/><line style="stroke:#A80036;stroke-width:1.5;" x1="249" x2="134" y1="190.8906" y2="190.8906"/><polygon fill="#A80036" points="144,186.8906,134,190.8906,144,194.8906,140,190.8906" style="stroke:#A80036;stroke-width:1.0;"/><line style="stroke:#A80036;stroke-width:1.5;" x1="122" x2="122" y1="518.668" y2="538.668"/><polygon fill="#A80036" points="118,528.668,122,538.668,126,528.668,122,532.668" style="stroke:#A80036;stroke-width:1.0;"/><line style="stroke:#A80036;stroke-width:1.5;" x1="122" x2="122" y1="158.8906" y2="178.8906"/><polygon fill="#A80036" points="118,168.8906,122,178.8906,126,168.8906,122,172.8906" style="stroke:#A80036;stroke-width:1.0;"/><line style="stroke:#A80036;stroke-width:1.5;" x1="122" x2="122" y1="562.668" y2="582.668"/><polygon fill="#A80036" points="118,572.668,122,582.668,126,572.668,122,576.668" style="stroke:#A80036;stroke-width:1.0;"/><line style="stroke:#A80036;stroke-width:1.5;" x1="122" x2="122" y1="616.6367" y2="636.6367"/><polygon fill="#A80036" points="118,626.6367,122,636.6367,126,626.6367,122,630.6367" style="stroke:#A80036;stroke-width:1.0;"/><!--MD5=[3109df8a90710a1687551990b06b60c5]
@startuml

title Trie Insert

start
:current = root;

:for each c in key;
repeat
    :current = current.children.get(c);
    if (current = null) then (yes)
        :node = new TrieNode();
        :current.children.put(c, node);
        :current = node;
    endif
repeatwhile
:current.bucket.add(value);
stop
@enduml

PlantUML version 1.2021.7(Sun May 23 06:40:07 CST 2021)
(GPL source distribution)
Java Runtime: OpenJDK Runtime Environment
JVM: OpenJDK 64-Bit Server VM
Default Encoding: UTF-8
Language: en
Country: US
--></g></svg>