<?xml version="1.0" encoding="UTF-8" standalone="no"?><svg xmlns="http://www.w3.org/2000/svg" xmlns:xlink="http://www.w3.org/1999/xlink" contentScriptType="application/ecmascript" contentStyleType="text/css" height="551px" preserveAspectRatio="none" style="width:663px;height:551px;background:#FFFFFF;" version="1.1" viewBox="0 0 663 551" width="663px" zoomAndPan="magnify"><defs><filter height="300%" id="f1erj0kzbgefd1" width="300%" x="-1" y="-1"><feGaussianBlur result="blurOut" stdDeviation="2.0"/><feColorMatrix in="blurOut" result="blurOut2" type="matrix" values="0 0 0 0 0 0 0 0 0 0 0 0 0 0 0 0 0 0 .4 0"/><feOffset dx="4.0" dy="4.0" in="blurOut2" result="blurOut3"/><feBlend in="SourceGraphic" in2="blurOut3" mode="normal"/></filter></defs><g><text fill="#000000" font-family="sans-serif" font-size="18" lengthAdjust="spacing" textLength="133" x="258.5" y="16.708">Index (current)</text><!--MD5=[88bd1797aa51b7eb596ab9c2cedac94c]
cluster edu.tec.ic6821.fulltextsearch--><polygon fill="#FFFFFF" filter="url(#f1erj0kzbgefd1)" points="16,26.9531,256,26.9531,263,49.25,646,49.25,646,544.9531,16,544.9531,16,26.9531" style="stroke:#000000;stroke-width:1.5;"/><line style="stroke:#000000;stroke-width:1.5;" x1="16" x2="263" y1="49.25" y2="49.25"/><text fill="#000000" font-family="sans-serif" font-size="14" font-weight="bold" lengthAdjust="spacing" textLength="234" x="20" y="41.9482">edu.tec.ic6821.fulltextsearch</text><!--MD5=[2265efe58f509802ec1fe9822d1e6e2b]
cluster index--><polygon fill="#FFFFFF" filter="url(#f1erj0kzbgefd1)" points="40,69.9531,90,69.9531,97,92.25,622,92.25,622,520.9531,40,520.9531,40,69.9531" style="stroke:#000000;stroke-width:1.5;"/><line style="stroke:#000000;stroke-width:1.5;" x1="40" x2="97" y1="92.25" y2="92.25"/><text fill="#000000" font-family="sans-serif" font-size="14" font-weight="bold" lengthAdjust="spacing" textLength="44" x="44" y="84.9482">index</text><!--MD5=[15b9a87b033c6044cf0e9bbdacb18726]
class Index--><rect codeLine="7" fill="#FEFECE" filter="url(#f1erj0kzbgefd1)" height="112.0234" id="Index" style="stroke:#A80036;stroke-width:1.5;" width="181" x="244.5" y="104.9531"/><ellipse cx="313.75" cy="120.9531" fill="#B4A7E5" rx="11" ry="11" style="stroke:#A80036;stroke-width:1.0;"/><path d="M310.1719,116.7344 L310.1719,114.4531 L317.5625,114.4531 L317.5625,116.7344 L315.0938,116.7344 L315.0938,125.1875 L317.5625,125.1875 L317.5625,127.4531 L310.1719,127.4531 L310.1719,125.1875 L312.6406,125.1875 L312.6406,116.7344 L310.1719,116.7344 Z " fill="#000000"/><text fill="#000000" font-family="sans-serif" font-size="12" font-style="italic" lengthAdjust="spacing" textLength="34" x="334.25" y="125.1074">Index</text><line style="stroke:#A80036;stroke-width:1.5;" x1="245.5" x2="424.5" y1="136.9531" y2="136.9531"/><line style="stroke:#A80036;stroke-width:1.5;" x1="245.5" x2="424.5" y1="144.9531" y2="144.9531"/><text fill="#000000" font-family="sans-serif" font-size="11" lengthAdjust="spacing" textLength="158" x="250.5" y="159.1636">index(String term, File):void</text><text fill="#000000" font-family="sans-serif" font-size="11" lengthAdjust="spacing" textLength="169" x="250.5" y="171.9683">search(String term):Set&lt;File&gt;</text><text fill="#000000" font-family="sans-serif" font-size="11" lengthAdjust="spacing" textLength="122" x="250.5" y="184.7729">isPersistent():boolean</text><text fill="#000000" font-family="sans-serif" font-size="11" lengthAdjust="spacing" textLength="74" x="250.5" y="197.5776">persist():void</text><text fill="#000000" font-family="sans-serif" font-size="11" lengthAdjust="spacing" textLength="98" x="250.5" y="210.3823">restore():boolean</text><!--MD5=[587a74f44ccd1f6f7285247a7be3e6b9]
class InMemoryMapIndex--><rect codeLine="15" fill="#FEFECE" filter="url(#f1erj0kzbgefd1)" height="60.8047" id="InMemoryMapIndex" style="stroke:#A80036;stroke-width:1.5;" width="198" x="56" y="277.9531"/><ellipse cx="92.15" cy="293.9531" fill="#ADD1B2" rx="11" ry="11" style="stroke:#A80036;stroke-width:1.0;"/><path d="M94.6188,299.8281 Q94.0406,300.1406 93.4,300.2969 Q92.7594,300.4531 92.0563,300.4531 Q89.5563,300.4531 88.2281,298.7813 Q86.9156,297.1094 86.9156,293.9531 Q86.9156,290.7969 88.2281,289.125 Q89.5563,287.4531 92.0563,287.4531 Q92.7594,287.4531 93.4,287.6094 Q94.0563,287.7656 94.6188,288.0781 L94.6188,290.875 Q93.9938,290.3125 93.4,290.0469 Q92.8063,289.7656 92.1813,289.7656 Q90.8375,289.7656 90.15,290.8281 Q89.4625,291.8906 89.4625,293.9531 Q89.4625,296.0313 90.15,297.0938 Q90.8375,298.1406 92.1813,298.1406 Q92.8063,298.1406 93.4,297.875 Q93.9938,297.6094 94.6188,297.0313 L94.6188,299.8281 Z " fill="#000000"/><text fill="#000000" font-family="sans-serif" font-size="12" lengthAdjust="spacing" textLength="119" x="110.85" y="298.1074">InMemoryMapIndex</text><line style="stroke:#A80036;stroke-width:1.5;" x1="57" x2="253" y1="309.9531" y2="309.9531"/><rect fill="none" height="6" style="stroke:#C82930;stroke-width:1.0;" width="6" x="64" y="317.9531"/><text fill="#000000" font-family="sans-serif" font-size="11" lengthAdjust="spacing" textLength="172" x="76" y="324.1636">index:Map&lt;String, Set&lt;File&gt;&gt;</text><line style="stroke:#A80036;stroke-width:1.5;" x1="57" x2="253" y1="330.7578" y2="330.7578"/><!--MD5=[cb9bb2482726ddd12b50b902a735724a]
class MapIndex--><rect codeLine="19" fill="#FEFECE" filter="url(#f1erj0kzbgefd1)" height="73.6094" id="MapIndex" style="stroke:#A80036;stroke-width:1.5;" width="154" x="358" y="430.9531"/><ellipse cx="401.35" cy="446.9531" fill="#ADD1B2" rx="11" ry="11" style="stroke:#A80036;stroke-width:1.0;"/><path d="M403.8188,452.8281 Q403.2406,453.1406 402.6,453.2969 Q401.9594,453.4531 401.2563,453.4531 Q398.7563,453.4531 397.4281,451.7813 Q396.1156,450.1094 396.1156,446.9531 Q396.1156,443.7969 397.4281,442.125 Q398.7563,440.4531 401.2563,440.4531 Q401.9594,440.4531 402.6,440.6094 Q403.2563,440.7656 403.8188,441.0781 L403.8188,443.875 Q403.1938,443.3125 402.6,443.0469 Q402.0063,442.7656 401.3813,442.7656 Q400.0375,442.7656 399.35,443.8281 Q398.6625,444.8906 398.6625,446.9531 Q398.6625,449.0313 399.35,450.0938 Q400.0375,451.1406 401.3813,451.1406 Q402.0063,451.1406 402.6,450.875 Q403.1938,450.6094 403.8188,450.0313 L403.8188,452.8281 Z " fill="#000000"/><text fill="#000000" font-family="sans-serif" font-size="12" lengthAdjust="spacing" textLength="59" x="421.65" y="451.1074">MapIndex</text><line style="stroke:#A80036;stroke-width:1.5;" x1="359" x2="511" y1="462.9531" y2="462.9531"/><rect fill="none" height="6" style="stroke:#C82930;stroke-width:1.0;" width="6" x="366" y="470.9531"/><text fill="#000000" font-family="sans-serif" font-size="11" lengthAdjust="spacing" textLength="73" x="378" y="477.1636">indexFile:File</text><line style="stroke:#A80036;stroke-width:1.5;" x1="359" x2="511" y1="483.7578" y2="483.7578"/><ellipse cx="369" cy="494.7578" fill="#84BE84" rx="3" ry="3" style="stroke:#038048;stroke-width:1.0;"/><text fill="#000000" font-family="sans-serif" font-size="11" lengthAdjust="spacing" textLength="128" x="378" y="497.9683">MapIndex(:File, :Index)</text><path d="M289,288.4531 L289,304.4531 L254,308.4531 L289,312.4531 L289,328.7188 A0,0 0 0 0 289,328.7188 L569,328.7188 A0,0 0 0 0 569,328.7188 L569,298.4531 L559,288.4531 L289,288.4531 A0,0 0 0 0 289,288.4531 " fill="#FBFB77" filter="url(#f1erj0kzbgefd1)" style="stroke:#A80036;stroke-width:1.0;"/><path d="M559,288.4531 L559,298.4531 L569,298.4531 L559,288.4531 " fill="#FBFB77" style="stroke:#A80036;stroke-width:1.0;"/><text fill="#000000" font-family="sans-serif" font-size="13" lengthAdjust="spacing" textLength="142" x="295" y="305.52">persist() and restore()</text><text fill="#000000" font-family="sans-serif" font-size="13" lengthAdjust="spacing" textLength="259" x="295" y="320.6528">throws UnsupportedOperationException</text><!--MD5=[a99bb1714d921ba862f49513019f06e1]
reverse link Index to InMemoryMapIndex--><path codeLine="24" d="M251.12,229.7531 C230.21,246.6531 208.86,263.9131 191.61,277.8631 " fill="none" id="Index-backto-InMemoryMapIndex" style="stroke:#A80036;stroke-width:1.0;stroke-dasharray:7.0,7.0;"/><polygon fill="none" points="247,224.0931,266.95,216.9631,255.8,234.9731,247,224.0931" style="stroke:#A80036;stroke-width:1.0;"/><!--MD5=[84333681838d8145beb53f151fbe8bb9]
reverse link Index to MapIndex--><path codeLine="25" d="M445,183.7331 C497.47,200.2431 555.55,228.8431 587,277.9531 C623.28,334.5931 555.09,394.1431 498.69,430.9131 " fill="none" id="Index-backto-MapIndex" style="stroke:#A80036;stroke-width:1.0;stroke-dasharray:7.0,7.0;"/><polygon fill="none" points="442.84,190.3931,425.6,178.0831,446.76,176.9531,442.84,190.3931" style="stroke:#A80036;stroke-width:1.0;"/><!--MD5=[455e98b8535b90a0b4fa3e8ae07c0d78]
reverse link InMemoryMapIndex to MapIndex--><path codeLine="26" d="M212.06,341.5531 C258.12,367.4631 322.9,403.9031 370.77,430.8231 " fill="none" id="InMemoryMapIndex-backto-MapIndex" style="stroke:#A80036;stroke-width:1.0;"/><polygon fill="#A80036" points="207.67,339.0731,213.5642,346.9635,212.0313,341.5183,217.4765,339.9854,207.67,339.0731" style="stroke:#A80036;stroke-width:1.0;"/><text fill="#000000" font-family="sans-serif" font-size="13" lengthAdjust="spacing" textLength="73" x="312" y="382.02">«delegate»</text><text fill="#000000" font-family="sans-serif" font-size="13" lengthAdjust="spacing" textLength="36" x="330.5" y="397.1528">index</text><!--MD5=[a5b372c530bd39ba3a55c0f436537c0c]
@startuml

title Index (current)

package edu.tec.ic6821.fulltextsearch {

    package index {
        interface Index {
            index(String term, File):void
            search(String term):Set<File>
            isPersistent():boolean
            persist():void
            restore():boolean
        }

        class InMemoryMapIndex {
            - index:Map<String, Set<File>>
        }

        class MapIndex {
            - indexFile:File
            + MapIndex(:File, :Index)
        }

        Index <|.. InMemoryMapIndex
        Index <|.. MapIndex
        InMemoryMapIndex <- - MapIndex :<<delegate>>\nindex

        note right of InMemoryMapIndex
            persist() and restore()
            throws UnsupportedOperationException
        end note
    }
}

@enduml

PlantUML version 1.2021.7(Sun May 23 06:40:07 CST 2021)
(GPL source distribution)
Java Runtime: OpenJDK Runtime Environment
JVM: OpenJDK 64-Bit Server VM
Default Encoding: UTF-8
Language: en
Country: US
--></g></svg>